<?xml version="1.0" standalone="no"?>
<svg width="75" height="75" version="1.1" baseProfile="full" xmlns="http://www.w3.org/2000/svg">
<title>MDevoldere Logo</title>
<g fill="#555555">
<rect fill="none" y="0" x="0" height="100%" width="100%"/>
<path fill="#CCCCCC" d="M 49.5,35.5 c 0.35,-2.24 0.52,-4.22 0.52,-5.94 c 0,-3.56 -1,-6.1 -3,-7.63 c -2,-1.52 -5.4,-2.28 -10.16,-2.28 l -3.53,0 l -5.86,33.15 l 4.56,0 c 9.65,0 15.47,-5.77 17.48,-17.31z"/>
<path d="M 4.51,33.34 c -2,2 -2,5.29 0,7.31 l 9.70,9.70 l 5.71,-32.41 l -15.4,15.41z"/>
<path d="M 48.13,12.70 c 0.30,0.05 0.57,0.12 0.86,0.17 l -8.35,-8.35 c -2,-2 -5.29,-2 -7.31,0 l -7.75,7.75 l 16.17,0 c 2.28,0 4.4,0.15 6.37,0.44z"/>
<path d="M 69.47,33.34 l -5.7,-5.7 c 0.05,0.63 0.12,1.25 0.12,1.92 l -0.2,3.22 l -0.34,2.55 c -1,5.9 -3,10.79 -5.83,14.68 c -2.59,3.66 -6,6.34 -10.29,8 s -8.97,2.55 -14.1,2.55 l -8.67,0 l 8.89,8.89 c 2,2 5.29,2 7.3,0 l 28.83,-28.82 c 2,-2 2, -5.29 -0,-7.3z"/>
</g>
</svg>